<mxfile host="www.draw.io" modified="2019-12-24T08:21:42.198Z" agent="Mozilla/5.0 (Macintosh; Intel Mac OS X 10_13_4) AppleWebKit/537.36 (KHTML, like Gecko) Chrome/77.0.3865.90 Safari/537.36" etag="N5MVZcbNbGHfvC3sgntS" version="12.4.3" type="github" pages="1">
  <diagram id="hPg3wvvfUYCvAJcX31Ad" name="Page-1">
    <mxGraphModel dx="786" dy="465" grid="1" gridSize="10" guides="1" tooltips="1" connect="1" arrows="1" fold="1" page="1" pageScale="1" pageWidth="826" pageHeight="1169" math="0" shadow="0">
      <root>
        <mxCell id="0"/>
        <mxCell id="1" parent="0"/>
        <mxCell id="ZN0mGoLh30jJ4jRBMLKo-1" value="" style="rounded=0;whiteSpace=wrap;html=1;strokeWidth=2;fillColor=#dae8fc;strokeColor=#6c8ebf;" parent="1" vertex="1">
          <mxGeometry x="160" y="60" width="610" height="460" as="geometry"/>
        </mxCell>
        <mxCell id="ZN0mGoLh30jJ4jRBMLKo-2" value="&lt;font style=&quot;font-size: 16px&quot;&gt;事件管理&lt;/font&gt;" style="rounded=0;whiteSpace=wrap;html=1;strokeWidth=2;fillColor=#f8cecc;strokeColor=#b85450;" parent="1" vertex="1">
          <mxGeometry x="200" y="120" width="530" height="50" as="geometry"/>
        </mxCell>
        <mxCell id="ZN0mGoLh30jJ4jRBMLKo-3" value="&lt;font style=&quot;font-size: 16px&quot;&gt;功能组件管理&lt;/font&gt;" style="rounded=0;whiteSpace=wrap;html=1;strokeWidth=2;fillColor=#ffe6cc;strokeColor=#d79b00;" parent="1" vertex="1">
          <mxGeometry x="200" y="190" width="230" height="50" as="geometry"/>
        </mxCell>
        <mxCell id="ZN0mGoLh30jJ4jRBMLKo-4" value="&lt;font style=&quot;font-size: 16px&quot;&gt;规则质量校验&lt;/font&gt;" style="rounded=0;whiteSpace=wrap;html=1;strokeWidth=2;fillColor=#ffe6cc;strokeColor=#d79b00;" parent="1" vertex="1">
          <mxGeometry x="500" y="190" width="230" height="50" as="geometry"/>
        </mxCell>
        <mxCell id="ZN0mGoLh30jJ4jRBMLKo-5" value="&lt;font style=&quot;font-size: 16px&quot;&gt;版本管理&lt;/font&gt;" style="rounded=0;whiteSpace=wrap;html=1;strokeWidth=2;fillColor=#f8cecc;strokeColor=#b85450;" parent="1" vertex="1">
          <mxGeometry x="200" y="270" width="120" height="50" as="geometry"/>
        </mxCell>
        <mxCell id="ZN0mGoLh30jJ4jRBMLKo-6" value="&lt;font style=&quot;font-size: 16px&quot;&gt;参数管理&lt;/font&gt;" style="rounded=0;whiteSpace=wrap;html=1;strokeWidth=2;fillColor=#f8cecc;strokeColor=#b85450;" parent="1" vertex="1">
          <mxGeometry x="337.5" y="270" width="115" height="50" as="geometry"/>
        </mxCell>
        <mxCell id="ZN0mGoLh30jJ4jRBMLKo-7" value="&lt;font style=&quot;font-size: 16px&quot;&gt;标签管理&lt;/font&gt;" style="rounded=0;whiteSpace=wrap;html=1;strokeWidth=2;fillColor=#f8cecc;strokeColor=#b85450;" parent="1" vertex="1">
          <mxGeometry x="470" y="270" width="120" height="50" as="geometry"/>
        </mxCell>
        <mxCell id="ZN0mGoLh30jJ4jRBMLKo-8" value="&lt;font style=&quot;font-size: 16px&quot;&gt;事件规则定义&lt;/font&gt;" style="rounded=0;whiteSpace=wrap;html=1;strokeWidth=2;fillColor=#ffe6cc;strokeColor=#d79b00;" parent="1" vertex="1">
          <mxGeometry x="200" y="350" width="120" height="50" as="geometry"/>
        </mxCell>
        <mxCell id="ZN0mGoLh30jJ4jRBMLKo-9" value="&lt;font style=&quot;font-size: 15px&quot;&gt;权限管理&lt;/font&gt;" style="rounded=0;whiteSpace=wrap;html=1;strokeWidth=2;fillColor=#f8cecc;strokeColor=#b85450;" parent="1" vertex="1">
          <mxGeometry x="340" y="350" width="110" height="50" as="geometry"/>
        </mxCell>
        <mxCell id="ZN0mGoLh30jJ4jRBMLKo-10" value="&lt;font style=&quot;font-size: 16px&quot;&gt;操作记录管理&lt;/font&gt;" style="rounded=0;whiteSpace=wrap;html=1;strokeWidth=2;fillColor=#ffe6cc;strokeColor=#d79b00;" parent="1" vertex="1">
          <mxGeometry x="470" y="350" width="120" height="50" as="geometry"/>
        </mxCell>
        <mxCell id="ZN0mGoLh30jJ4jRBMLKo-15" value="" style="endArrow=none;html=1;strokeWidth=2;dashed=1;" parent="1" edge="1">
          <mxGeometry width="50" height="50" relative="1" as="geometry">
            <mxPoint x="190" y="430" as="sourcePoint"/>
            <mxPoint x="740" y="430" as="targetPoint"/>
          </mxGeometry>
        </mxCell>
        <mxCell id="ZN0mGoLh30jJ4jRBMLKo-16" value="&lt;font style=&quot;font-size: 16px&quot;&gt;仓颉&lt;/font&gt;" style="text;html=1;strokeColor=none;fillColor=none;align=center;verticalAlign=middle;whiteSpace=wrap;rounded=0;" parent="1" vertex="1">
          <mxGeometry x="200" y="80" width="40" height="20" as="geometry"/>
        </mxCell>
        <mxCell id="ZN0mGoLh30jJ4jRBMLKo-23" value="&lt;font style=&quot;font-size: 16px&quot;&gt;mysql&lt;/font&gt;" style="shape=process;whiteSpace=wrap;html=1;backgroundOutline=1;strokeWidth=2;fillColor=#e1d5e7;strokeColor=#9673a6;" parent="1" vertex="1">
          <mxGeometry x="227.5" y="450" width="110" height="60" as="geometry"/>
        </mxCell>
        <mxCell id="ZN0mGoLh30jJ4jRBMLKo-24" value="&lt;span style=&quot;font-size: 16px&quot;&gt;es&lt;/span&gt;" style="shape=process;whiteSpace=wrap;html=1;backgroundOutline=1;strokeWidth=2;fillColor=#e1d5e7;strokeColor=#9673a6;" parent="1" vertex="1">
          <mxGeometry x="400" y="450" width="110" height="60" as="geometry"/>
        </mxCell>
        <mxCell id="ZN0mGoLh30jJ4jRBMLKo-25" value="&lt;span style=&quot;font-size: 16px&quot;&gt;hdfs&lt;/span&gt;" style="shape=process;whiteSpace=wrap;html=1;backgroundOutline=1;strokeWidth=2;fillColor=#e1d5e7;strokeColor=#9673a6;" parent="1" vertex="1">
          <mxGeometry x="570" y="450" width="110" height="60" as="geometry"/>
        </mxCell>
        <mxCell id="ZN0mGoLh30jJ4jRBMLKo-28" value="&lt;font style=&quot;font-size: 16px&quot;&gt;等级管理&lt;/font&gt;" style="rounded=0;whiteSpace=wrap;html=1;strokeWidth=2;fillColor=#f8cecc;strokeColor=#b85450;" parent="1" vertex="1">
          <mxGeometry x="610" y="270" width="120" height="50" as="geometry"/>
        </mxCell>
        <mxCell id="ZN0mGoLh30jJ4jRBMLKo-29" value="&lt;font style=&quot;font-size: 16px&quot;&gt;配置管理&lt;/font&gt;" style="rounded=0;whiteSpace=wrap;html=1;strokeWidth=2;fillColor=#f8cecc;strokeColor=#b85450;" parent="1" vertex="1">
          <mxGeometry x="610" y="350" width="120" height="50" as="geometry"/>
        </mxCell>
      </root>
    </mxGraphModel>
  </diagram>
</mxfile>
